<?xml version="1.0" standalone="no"?>
<!DOCTYPE svg PUBLIC "-//W3C//DTD SVG 20010904//EN"
 "http://www.w3.org/TR/2001/REC-SVG-20010904/DTD/svg10.dtd">
<svg version="1.0" xmlns="http://www.w3.org/2000/svg"
 width="260.000000pt" height="260.000000pt" viewBox="0 0 260.000000 260.000000"
 preserveAspectRatio="xMidYMid meet">
<metadata>
Created by potrace 1.14, written by Peter Selinger 2001-2017
</metadata>
<g transform="translate(0.000000,260.000000) scale(0.100000,-0.100000)"
fill="#000000" stroke="none">
<path d="M702 2589 c-172 -29 -320 -107 -452 -239 -135 -135 -210 -279 -239
-460 -14 -87 -14 -1093 0 -1180 29 -181 104 -325 239 -460 135 -135 279 -210
460 -239 87 -14 1093 -14 1180 0 181 29 325 104 460 239 135 135 210 279 239
460 14 87 14 1093 0 1180 -29 181 -104 325 -239 460 -135 135 -279 210 -460
239 -79 13 -1111 13 -1188 0z m242 -841 c20 -62 87 -281 150 -486 63 -206 123
-390 134 -410 10 -21 35 -46 55 -57 21 -11 37 -28 37 -37 0 -17 -16 -18 -191
-18 -190 0 -190 0 -187 22 2 15 13 24 35 30 70 18 77 70 29 233 l-23 80 -189
0 -189 0 -22 -60 c-56 -156 -52 -221 18 -251 25 -11 39 -24 39 -36 0 -17 -13
-18 -175 -18 -160 0 -175 1 -175 18 0 9 16 26 37 37 25 14 47 38 69 80 18 33
107 256 197 495 91 239 170 447 176 463 10 26 14 27 75 27 l65 0 35 -112z
m1136 77 c131 -46 188 -168 145 -311 -18 -62 -63 -114 -137 -157 l-56 -34 53
-26 c75 -37 119 -79 145 -139 19 -44 22 -65 18 -133 -5 -93 -28 -145 -83 -193
-89 -79 -157 -92 -482 -92 -246 0 -253 1 -253 20 0 13 12 25 34 34 19 8 39 23
45 34 14 27 15 890 1 927 -6 15 -24 32 -45 41 -24 10 -35 21 -35 35 0 20 3 20
298 17 262 -3 303 -6 352 -23z"/>
<path d="M721 1442 c-46 -130 -86 -243 -88 -249 -4 -10 32 -13 161 -13 91 0
166 3 166 7 0 18 -144 493 -149 493 -3 0 -44 -107 -90 -238z"/>
<path d="M1698 1774 c-16 -5 -18 -24 -18 -215 l0 -209 93 0 c213 0 305 77 295
249 -4 82 -23 114 -88 150 -36 20 -58 24 -154 27 -61 2 -119 1 -128 -2z"/>
<path d="M1680 1050 l0 -229 36 -7 c21 -4 77 -4 125 -1 92 6 160 28 191 63 77
88 66 291 -20 352 -45 32 -135 52 -239 52 l-93 0 0 -230z"/>
</g>
</svg>
