<?xml version="1.0" standalone="no"?>
<!DOCTYPE svg PUBLIC "-//W3C//DTD SVG 20010904//EN"
 "http://www.w3.org/TR/2001/REC-SVG-20010904/DTD/svg10.dtd">
<svg version="1.0" xmlns="http://www.w3.org/2000/svg"
 width="512.000000pt" height="512.000000pt" viewBox="0 0 512.000000 512.000000"
 preserveAspectRatio="xMidYMid meet">

<g transform="translate(0.000000,512.000000) scale(0.100000,-0.100000)"
fill="#000000" stroke="none">
<path d="M2980 5106 c-288 -45 -490 -143 -656 -318 -140 -148 -227 -321 -276
-548 -19 -86 -21 -138 -25 -542 l-4 -448 -395 0 -394 0 0 -455 0 -455 393 -2
392 -3 3 -1167 2 -1168 470 0 470 0 0 1170 0 1170 390 0 c215 0 390 1 390 3
27 182 116 894 113 900 -2 4 -204 7 -449 7 l-445 0 3 373 c3 364 4 373 27 431
47 117 145 187 293 206 40 5 193 10 341 10 l267 0 -2 408 -3 407 -130 12
c-213 19 -675 25 -775 9z"/>
</g>
</svg>
