<?xml version="1.0" standalone="no"?>
<!DOCTYPE svg PUBLIC "-//W3C//DTD SVG 20010904//EN"
 "http://www.w3.org/TR/2001/REC-SVG-20010904/DTD/svg10.dtd">
<svg version="1.0" xmlns="http://www.w3.org/2000/svg"
 width="512.000000pt" height="512.000000pt" viewBox="0 0 512.000000 512.000000"
 preserveAspectRatio="xMidYMid meet">

<g transform="translate(0.000000,512.000000) scale(0.100000,-0.100000)"
fill="#000000" stroke="none">
<path d="M572 5109 c-279 -47 -519 -292 -562 -575 -7 -47 -10 -687 -8 -2019
l3 -1950 28 -80 c79 -223 229 -373 452 -452 l80 -28 1995 0 1995 0 80 28 c231
82 390 248 462 482 17 57 18 148 18 2050 l0 1990 -28 80 c-79 223 -229 373
-452 452 l-80 28 -1965 1 c-1109 1 -1988 -2 -2018 -7z m943 -964 c127 -34 230
-120 288 -242 40 -86 49 -207 22 -299 -54 -186 -223 -314 -412 -314 -174 0
-327 95 -398 247 -157 331 146 700 500 608z m1962 -1016 c349 -39 558 -239
632 -605 34 -168 41 -319 41 -918 l0 -578 -34 -34 -34 -34 -274 0 c-254 0
-275 1 -305 20 -18 11 -35 30 -38 42 -2 13 -6 286 -8 608 -3 516 -5 592 -20
645 -27 94 -64 161 -113 204 -60 53 -118 71 -224 71 -77 0 -94 -4 -148 -30
-73 -37 -125 -92 -163 -174 -63 -136 -62 -127 -68 -758 l-6 -577 -23 -23 c-22
-23 -27 -23 -292 -26 -296 -3 -316 0 -339 55 -8 21 -11 289 -9 1031 l3 1004
28 24 28 24 275 0 c169 0 283 -4 294 -10 33 -18 44 -51 50 -148 l5 -93 39 50
c135 178 399 264 703 230z m-1767 -57 c19 -19 30 -43 35 -73 3 -24 5 -476 3
-1004 -3 -905 -4 -962 -21 -986 -32 -47 -54 -50 -335 -47 l-262 3 -27 28 -28
27 -3 993 c-1 545 0 1003 3 1015 3 13 18 35 32 48 l26 24 274 0 275 0 28 -28z"/>
</g>
</svg>
